<?xml version="1.0" encoding="UTF-8"?>
<!DOCTYPE svg PUBLIC "-//W3C//DTD SVG 1.1//EN" "http://www.w3.org/Graphics/SVG/1.1/DTD/svg11.dtd">
<!-- Creator: CorelDRAW -->
<svg xmlns="http://www.w3.org/2000/svg" xml:space="preserve" width="173.153mm" height="173.153mm" version="1.1" style="shape-rendering:geometricPrecision; text-rendering:geometricPrecision; image-rendering:optimizeQuality; fill-rule:evenodd; clip-rule:evenodd"
viewBox="0 0 1361.58 1361.58"
 xmlns:xlink="http://www.w3.org/1999/xlink"
 xmlns:xodm="http://www.corel.com/coreldraw/odm/2003">
 <defs>
  <style type="text/css">
   <![CDATA[
    .fil1 {fill:none}
    .fil0 {fill:gray}
   ]]>
  </style>
   <clipPath id="id0">
    <path d="M1361.58 1361.58l-1361.58 0 0 -1361.58 1361.58 0 0 1361.58z"/>
   </clipPath>
 </defs>
 <g id="Capa_x0020_1">
  <metadata id="CorelCorpID_0Corel-Layer"/>
  <g>
  </g>
  <g style="clip-path:url(#id0)">
   <g id="_2367920960528">
    <g>
     <path class="fil0" d="M323.41 680.79c0,-24.34 4.64,-56.48 9.36,-79.2 11.67,-56.28 43.86,-118.78 84.37,-160.73 4.48,-4.64 6.18,-7.88 11.01,-12.71 4.62,-4.62 7.44,-6.09 11.91,-10.23l36.51 -29.91c45.41,-33.7 126.33,-63.22 182.13,-62.98 9.83,0.04 12.33,-1.72 22.1,-1.72 20.01,0 60.93,5.68 79.2,9.46 25.19,5.22 46.06,13.67 67.65,22.49 29.78,12.16 68.98,38.6 93.09,61.88 4.65,4.5 7.85,6.16 12.7,11.02l57.31 75.53c5.36,9.91 11.22,19.54 15.59,30.26 8.52,20.87 17.33,42.49 22.23,66.32 2.6,12.64 4.91,23.95 6.45,37.82 8.89,79.83 -5.55,148.84 -43.74,218.77 -5.4,9.89 -10.54,18.35 -17.02,27.25 -3.36,4.61 -5.86,8.6 -9.3,12.84 -3.6,4.44 -6.35,7.65 -9.9,12.23l-21.63 24.23c-12.61,12.64 -33.77,29.29 -48.4,40.15 -8.29,6.15 -18.03,12.23 -27.12,17.15 -30.66,16.58 -61.05,30.52 -96.59,37.83 -20.67,4.25 -58.54,9.72 -80.52,9.72 -20.01,0 -60.93,-5.68 -79.2,-9.46 -24.84,-5.15 -46.26,-13.76 -67.65,-22.49 -12.58,-5.14 -44.46,-23.32 -56.48,-32.07 -15.29,-11.14 -22.83,-16.5 -36.61,-29.8 -9.81,-9.48 -24.15,-22.04 -33.65,-34.35 -44.47,-57.6 -72.06,-109.62 -80.63,-186.61 -1.35,-12.15 -3.16,-29.94 -3.16,-42.7zm347.36 -404.82l25.14 0c55.17,1.61 109.46,13.86 156.19,37.41 69.51,35.04 114.09,70.83 160.09,134.04 14.55,20 24.45,39.13 35.99,62.05 18.55,36.8 37.41,102.52 37.41,157.09l0 28.46c0,55.2 -19.39,121.39 -37.95,158.14 -34.44,68.21 -71.21,113.98 -133.5,159.04 -20.14,14.57 -39.02,24.39 -62.05,35.99 -36.8,18.55 -102.52,37.41 -157.09,37.41l-28.46 0c-55.41,0 -121.25,-19.32 -158.14,-37.95 -41.63,-21.02 -98.58,-57.25 -127.17,-94.22 -26.02,-33.64 -23.57,-23.66 -51.61,-70.15 -6.08,-10.08 -11.14,-20.93 -16.8,-32.23 -28.56,-57.08 -36.88,-115.07 -36.88,-186.09 0,-75.33 34.01,-164.89 74.76,-219.37 38.77,-51.84 69.81,-81.13 127.56,-115.96 55.35,-33.38 123.8,-51.67 192.49,-53.67z"/>
     <path class="fil0" d="M421.45 682.37c0,-24.39 21.14,-40.84 33.84,-78.44 11.62,-34.42 -0.65,-67.58 24.93,-84.18 37.63,-24.42 37.55,-7.38 83.16,-52.84 2.41,-2.41 4.07,-3.85 6.35,-6.31 28.84,-31.18 25.68,-32.46 75.35,-22.42 65.75,13.29 62.92,-5.67 110.04,-5.67 10.84,0 26.46,15.13 31.86,21.9 62.06,77.79 104.78,36.38 112.04,103.02 1.75,16.08 2.94,32.16 7.18,46.58 17.76,60.4 55.31,53.61 17.81,115.99 -39.96,66.47 -11.71,100.96 -41.69,121.18 -11.41,7.7 -23.39,11.37 -36.03,17.74 -29.16,14.7 -25.85,13.52 -47.3,34.93 -35.33,35.28 -26.4,40.7 -81.17,29.77 -10.84,-2.16 -24.88,-4.83 -35.69,-5.44 -42.93,-2.42 -70.22,31.43 -106.1,-9.33l-26.1 -27.67c-19.79,-20.04 -49.21,-26.08 -69.72,-39.39 -32.11,-20.84 -1.92,-52.99 -42.05,-120.83 -5.37,-9.08 -16.72,-26.2 -16.72,-38.63zm-49.02 -1.58c0,32.11 21.39,55.8 32.8,81.05 12.25,27.1 4.21,62.37 22.59,94.43 8.13,14.19 26.28,27.88 42.1,35.39 37.69,17.9 40.14,13.76 67.44,46.42 17.43,20.85 47.51,43.13 76.53,39.64 75.17,-9.05 36.44,-17.72 115.48,-2.35 28.52,5.55 51.65,0.6 74.12,-16.9 24.28,-18.91 29.73,-39.56 60.71,-54.73 22.66,-11.1 52.6,-19.19 68.98,-46.46 18.19,-30.3 12.05,-72.17 22.19,-93.25 23.84,-49.58 54.47,-74.23 14.52,-139.87 -15.28,-25.11 -17.14,-28.89 -20.96,-56.52 -6.27,-45.3 -7.81,-74.21 -57.26,-97.71 -37.83,-17.98 -40.43,-14.12 -67.44,-46.42 -17.74,-21.22 -47.13,-43.17 -76.53,-39.64 -75.22,9.05 -36.55,17.7 -115.48,2.35 -4.15,-0.81 -11.32,-1.31 -16.97,-2.11 -9.02,-1.29 -25.09,1.85 -32.08,4.56 -12.56,4.88 -15.13,7.15 -24.83,14.7 -17.21,13.4 -18.91,19.46 -28.14,28.79 -28.25,28.55 -24.57,20.8 -60.28,37.76 -15.15,7.19 -33.26,20.55 -41.51,34.39 -18.89,31.64 -11.32,68.85 -22.18,93.26 -11.71,26.33 -33.79,50.91 -33.79,83.22z"/>
     <path class="fil0" d="M562.19 690.28c0,-25.76 -0.17,-37.62 11.07,-61.67 10.29,-22.04 32.43,-43.88 54.28,-54.83 31.8,-15.94 73.3,-15.53 105.44,-0.51 11.71,5.47 23.09,14.39 32.02,23.32 9.07,9.07 16.87,19.1 22.81,30.95 29.29,58.43 3.81,131.41 -53.76,160.27 -58.43,29.29 -131.41,3.81 -160.27,-53.76 -5.03,-10.04 -11.58,-29.55 -11.58,-43.77zm-49.02 -14.23c0,28.85 4.22,51.86 15.26,74.87 17.38,36.21 45.36,64.13 81.17,81.71 101.4,49.75 238.8,-19.62 238.8,-156.58 0,-85.68 -77.26,-162.88 -162.88,-162.88 -70.43,0 -126.74,35.62 -156.58,96.44 -7.82,15.93 -15.79,42.7 -15.79,66.44z"/>
    </g>
   </g>
  </g>
  <polygon class="fil1" points="1361.58,1361.58 -0,1361.58 -0,0 1361.58,0 "/>
 </g>
</svg>
