<?xml version="1.0" encoding="UTF-8"?>
<!DOCTYPE svg PUBLIC "-//W3C//DTD SVG 1.1//EN" "http://www.w3.org/Graphics/SVG/1.1/DTD/svg11.dtd">
<!-- Creator: CorelDRAW -->
<svg xmlns="http://www.w3.org/2000/svg" xml:space="preserve" width="173.153mm" height="173.153mm" version="1.1" style="shape-rendering:geometricPrecision; text-rendering:geometricPrecision; image-rendering:optimizeQuality; fill-rule:evenodd; clip-rule:evenodd"
viewBox="0 0 4502.97 4502.97"
 xmlns:xlink="http://www.w3.org/1999/xlink"
 xmlns:xodm="http://www.corel.com/coreldraw/odm/2003">
 <defs>
  <style type="text/css">
   <![CDATA[
    .fil1 {fill:none}
    .fil0 {fill:gray}
   ]]>
  </style>
   <clipPath id="id0">
    <path d="M4502.97 4502.97l-4502.97 0 0 -4502.97 4502.97 0 0 4502.97z"/>
   </clipPath>
 </defs>
 <g id="Capa_x0020_1">
  <metadata id="CorelCorpID_0Corel-Layer"/>
  <g>
  </g>
  <g style="clip-path:url(#id0)">
   <g id="_2365501982000">
    <path class="fil0" d="M875.52 3154l0 -309.59 752.8 52.13c65.99,9.91 310.17,15.91 380.48,25.43 56.31,7.62 123.39,5.97 186.62,12.89l572.17 40.13c84.45,2.01 299.44,27.43 378.26,27.65 79.64,0.22 455.56,36.02 564.16,41.27 38.98,1.88 65.51,5.39 96.32,6.88 15.67,0.76 32.03,-0.81 47.77,0.38 21.67,1.64 24.8,5.98 48.53,6.51 0,214.13 37.55,349.27 -187.63,318.35l-514.2 -15.55c-44.21,0.25 -59.42,-6.1 -96,-7.2 -33.46,-1 -69.78,0.12 -103.52,0.32 -44.21,0.25 -59.42,-6.1 -96,-7.2 -36.03,-1.08 -74.25,0.51 -110.54,0.46 -42.54,-0.06 -53.31,-7.29 -95.85,-7.35 -36.7,-0.05 -73.95,0.96 -110.59,0.51 -39.74,-0.49 -51.85,-7.49 -95.88,-7.32l-206.51 -6.76c-32.73,0.17 -71.17,1.81 -103.28,0.08 -34.17,-1.84 -52.52,-7.18 -96.24,-6.96l-308.63 -7.84c-58.49,-6.57 -144.84,0.25 -204.5,-8.78 -119.41,-18.08 -287.34,0.11 -403.81,-15.86 -113.22,-15.52 -293.95,45 -293.95,-132.6zm-385.27 -1434.76l0 -29.88c2.54,-20.84 10.51,-41.17 24.75,-58.57 10.73,-13.11 1.99,-3 10,-10.63 34.3,-32.65 61.3,-23.66 79.88,-71.48 13.43,-34.57 7.68,-65.36 29.74,-114.74 36.25,-81.14 117.56,-158.14 234.01,-158.14 78.17,0 129.29,58.37 180.38,-19.14 115.43,-175.12 305.22,-90.94 328.73,-90.94 12.52,0 31,-8.54 39.59,-15.44 0.05,-0.04 147.37,-229.42 362.35,-97.55 54.7,33.55 58.21,55.37 88.2,70.03 43.39,21.21 94.32,-5.03 138.76,19.47 57.51,31.72 62.17,125.37 38.43,174.85l269.19 95.44c89.71,32.42 176.81,65.8 266.57,98.06l803.16 290.73c124.95,43.33 438.85,143.4 513.63,215.63 56.22,54.3 115.08,142.68 115.08,249.55l0 1018.21c0,61.36 -27.8,107.24 -60.05,139.46 -32.08,32.06 -81.07,66.93 -132.58,66.93l-337.13 -6.86c-59.97,0.22 -91.34,-7.14 -151.32,-6.92l-151.34 -6.89c-51.73,-2.79 -105.35,5.15 -156.39,-1.85 -45.12,-6.18 -98.26,-4.69 -153.47,-4.76 -37.8,-0.05 -44.26,-5.47 -75.41,-7.15 -114.56,-6.19 -281.97,-1.01 -386.31,-12.72 -48.94,-5.49 -107.29,3.48 -156.23,-2.01 -47.36,-5.32 -95.2,-6.12 -152.4,-5.83 -58.15,0.3 -90.47,-7.09 -151.3,-6.93l-305.62 -10.85c-49.33,-7.47 -104.51,-2.6 -155.57,-2.67 -37.8,-0.05 -44.26,-5.47 -75.41,-7.15 -115.48,-6.24 -263.72,-3.27 -385.66,-13.37 -157.49,-13.03 -361.23,49.48 -460.64,-172.3 -31.38,-70 -20.59,-195.57 -20.59,-295.89 0,-54.66 7.44,-1083.74 -3.49,-1111.04 -3.06,-7.65 -26.95,-33.12 -35.19,-47.37 -8.68,-15.02 -14.3,-31.94 -16.37,-49.31zm385.27 244.55c120.65,10.04 251.09,28.96 372.14,40.64l566.41 59.65c157.61,21.72 409.89,41.98 573.84,59.1l372.67 40.12c106.44,6.5 266.22,31.33 378.98,40.69 126.55,10.49 259.94,24.95 379.75,39.92l383.32 36.35 0 385.27c-66.75,0 -225.72,-19.27 -288.82,-20.77 -44.1,-1.05 -105.35,-2.63 -149.61,-8.63 -23.14,-3.13 -37.68,-4.6 -70.86,-4.82l-667.03 -48.47c-112.46,-2.68 -204.3,-18.61 -288.91,-20.68 -116.86,-2.86 -210.53,-18.56 -295.88,-20.59 -46.18,-1.1 -103.25,-2.53 -150.48,-7.75l-295.06 -21.61c-34.12,-4.91 -98.1,-6.69 -98.1,50.14 0,23.17 11.14,39.35 25.67,50.01 23.91,17.56 146.4,15.15 210.13,23.78 44.26,5.99 105.51,7.58 149.61,8.63l441.19 33.52c49.67,5.44 100.94,6.5 150.52,7.71l295.64 20.83c38.76,1.87 108.08,8.64 145.5,12.74l591.03 41.91c55,4.31 95.69,4.49 150.99,7.25 39.89,1.99 105.34,12.9 144.46,13.77l0 158.24 -1132.27 -78.58c-65.37,-9.82 -120.33,-4.41 -187.65,-11.86 -60.03,-6.64 -127.27,-6.61 -192.63,-13.76l-565.34 -40.08c-60.3,-0.39 -129.42,-14.04 -192.53,-13.87 -59.98,0.16 -125.63,-14.07 -185.61,-13.91l-474.79 -34.31c-15.67,-0.76 -32.03,0.81 -47.77,-0.38 -21.67,-1.64 -24.8,-5.98 -48.53,-6.51l0 -158.23c87.66,0 191.53,13.54 275.56,20.27l205.99 14.16c61.81,3.34 123.87,11.19 123.87,-55.07 0,-86.72 -161.18,-53.97 -279.17,-71.7l-326.25 -24.61 0 -488.47zm1059.49 -667.34l-324.68 39.95c-23.42,2.99 -33.38,1.99 -49.47,12.44 -23.91,15.53 -24.87,30.26 -24.87,50.8 0,90.47 166.57,35.03 310.22,21.27 35.35,-3.39 52.14,-6.23 88.92,-8.04 67.97,-3.33 126.99,31.85 224.41,64.95l438.47 160.07c280.8,94.68 605.24,227.3 878.93,318.16 48.89,16.23 97.29,33.95 146.53,52.98 98.52,38.09 191.2,53.02 244.77,154.26 -36.79,0 -53.54,-4.11 -88.8,-7.52l-2897.04 -302.07c4.74,-56.89 36.95,-109.35 68.63,-151.53 50.3,-66.98 198.05,-132.3 279.58,-160.73 77.73,-27.1 140.26,-26.64 140.26,-86.77 0,-108.87 -184.62,-21.27 -247.88,6.67 -112.75,49.81 -227.24,106.09 -293.57,215.54 -27.11,44.75 -63.98,122.68 -63.98,190.58l0 1327.8c0,25.49 12.27,58.24 20.64,75.68 -55.34,-4.61 -99.95,-52.93 -117.11,-96.17 -25.84,-65.13 -13.61,-554.61 -13.61,-646.85l0 -660.46c0.09,-133.76 -1.86,-85.69 -55.04,-165.11 167.1,-88.42 91.23,-167.82 156.92,-255.87 95.29,-127.73 193.36,21.33 327.73,-64.42 67.08,-42.81 51.92,-103.08 153.27,-122.51 62.18,-11.92 170.61,72.73 278.77,-50.87 53.64,-61.3 52.13,-77.35 142.8,-77.35 65.91,0 88.12,43.86 126.54,72.98 30.61,23.2 104.05,61.8 155.54,37.1 0,25.85 -4.05,32.99 -6.88,55.04z"/>
   </g>
  </g>
  <polygon class="fil1" points="4502.97,4502.97 -0,4502.97 -0,0 4502.97,0 "/>
 </g>
</svg>
