<?xml version="1.0" encoding="UTF-8"?>
<!DOCTYPE svg PUBLIC "-//W3C//DTD SVG 1.1//EN" "http://www.w3.org/Graphics/SVG/1.1/DTD/svg11.dtd">
<!-- Creator: CorelDRAW -->
<svg xmlns="http://www.w3.org/2000/svg" xml:space="preserve" width="173.153mm" height="173.153mm" version="1.1" style="shape-rendering:geometricPrecision; text-rendering:geometricPrecision; image-rendering:optimizeQuality; fill-rule:evenodd; clip-rule:evenodd"
viewBox="0 0 2855.78 2855.78"
 xmlns:xlink="http://www.w3.org/1999/xlink"
 xmlns:xodm="http://www.corel.com/coreldraw/odm/2003">
 <defs>
  <style type="text/css">
   <![CDATA[
    .fil1 {fill:none}
    .fil0 {fill:gray}
   ]]>
  </style>
   <clipPath id="id0">
    <path d="M2855.78 2855.78l-2855.78 0 0 -2855.78 2855.78 0 0 2855.78z"/>
   </clipPath>
 </defs>
 <g id="Capa_x0020_1">
  <metadata id="CorelCorpID_0Corel-Layer"/>
  <g>
  </g>
  <g style="clip-path:url(#id0)">
   <g id="_2367918211280">
    <g>
     <path class="fil0" d="M692.26 2056.64l1257.49 0c-0.69,31.23 -31.8,69.05 -52.11,83.07 -31.66,21.86 -56.47,30.1 -108.22,30.1l-936.83 0c-51.07,0 -75.14,-7.79 -106.33,-28.85 -21.14,-14.27 -53.1,-51.65 -54,-84.32zm1232.34 -414.97l12.76 -68.97c6.49,-46.15 6.1,-64.61 6.1,-110.22l100.6 0c0,55.08 4.99,101.85 -30.63,142.27 -19.08,21.65 -49.04,36.92 -88.83,36.92zm18.86 -304.94l226.35 0c0,89.66 9.89,215.33 -21.09,287 -27.79,64.3 -79.45,109.09 -144.62,132.03 -36.87,12.98 -77.82,11.66 -126.66,11.66 7.24,-13.69 21.45,-43.84 25.15,-59.73 30,0 58.48,-2.37 81.42,-9.75 66.54,-21.41 122.93,-86.99 122.93,-160.01l0 -110.03c0,-19.67 -17.43,-31.44 -37.72,-31.44l-125.75 0 0 -59.73zm-1320.37 -132.04l0 292.37c0,107.13 32.44,204.62 77.5,293.46 10.78,21.26 22.82,36.89 35.07,56.1 7.18,11.27 10.8,17.87 19.04,28.12l113.61 119.03 -201.29 -0.1c-38.84,-0.42 -43.92,11.14 -43.92,44.11 0,98.26 96.65,194.91 194.91,194.91l1005.99 0c98.26,0 194.91,-96.65 194.91,-194.91 0,-13.3 2.8,-32.55 -18.09,-41.64 -13.49,-5.87 -281.05,-2.37 -302.57,-2.37l39.94 -35.51c20.41,-17.05 86.34,-96.12 101.53,-124.82 115.84,0 184,3.65 274.9,-64.62 64.06,-48.11 118.07,-138.87 118.07,-224.6l0 -242.07c0,-19.67 -17.43,-31.44 -37.73,-31.44l-251.5 0c0,-55.4 10.64,-97.46 -37.72,-97.46l-666.47 0c-51.36,0 -51.16,66.02 3.14,66.02l638.18 0c0,208.18 17.78,371.91 -87.4,547.63 -37.99,63.47 -91.15,122.52 -150.62,166.9 -11.99,8.95 -51.74,39.96 -66.92,39.96l-584.73 0c-14.9,0 -53.43,-29.88 -65.13,-38.61l-58.33 -48.56c-28.34,-27.12 -74.81,-87.49 -94.08,-119.69 -105.18,-175.72 -87.4,-339.45 -87.4,-547.63l201.2 0c54.3,0 54.51,-66.02 3.15,-66.02l-229.49 0c-20.95,0 -37.73,10.82 -37.73,31.44z"/>
     <path class="fil0" d="M1286.42 899.74c0,64.7 -47.15,89.99 -47.15,106.89 0,19.25 10.38,33.73 29.6,35.76 20.65,2.18 27.91,-10.83 38.62,-24.13 63.93,-79.38 56.19,-161.58 -7.56,-238.92 -48.18,-58.46 5.35,-108.77 5.35,-124.81 0,-13.38 -13.13,-30.03 -30.12,-31.44l-4.61 0c-15.26,1.25 -32.8,15.17 -46.61,53.84 -40.78,114.23 62.48,149.03 62.48,222.81z"/>
     <path class="fil0" d="M1041.21 786.57c0,122.51 104.09,125.28 62.54,229.16 -12.41,31.03 -37.39,41.16 -37.39,66.35 0,23.63 31.96,51.38 62.52,12.22 41.87,-53.64 63.52,-112.9 36.82,-180.73 -28.07,-71.32 -58.48,-53.24 -58.48,-127 0,-31.51 22.01,-35.93 22.01,-62.87 0,-16.09 -16.53,-31.44 -31.44,-31.44 -29.69,0 -56.59,61.15 -56.59,94.31z"/>
     <path class="fil0" d="M1390.16 786.57c0,95.36 41.53,92.17 63.84,149.94 31.19,80.77 -38.69,108.75 -38.69,148.72 0,17.69 29.17,49.8 62.21,8.76 31.85,-39.56 47.82,-68.33 47.82,-125.08 0,-54.08 -27.34,-87.51 -50.8,-118.96 -10.52,-14.1 -23.58,-38.06 -19.95,-61.6 5.82,-37.69 39.8,-60.39 15.13,-84.49 -43.41,-42.4 -79.56,46.98 -79.56,82.71z"/>
     <path class="fil0" d="M1591.36 1811.43c0,37.44 34.43,44.65 57.46,22.88l42.7 -51.61c67.88,-89.9 101.04,-195.12 101.04,-310.79 0,-18.86 -36.53,-39.31 -56.87,-12.86 -6.16,8.01 -5.21,13.34 -7.02,27.57 -2.19,17.24 -3.03,41.05 -5.76,60.25 -13,91.33 -58.5,175.59 -119.84,241.69 -6.51,7.01 -11.71,10.31 -11.71,22.87z"/>
     <path class="fil0" d="M1487.62 1893.16c0,42.22 62.88,46.78 62.88,-3.14 0,-37.53 -62.88,-37.84 -62.88,3.14z"/>
     <path class="fil0" d="M1041.21 1204.69c0,25.09 27.6,42.76 49.49,27.57 27.09,-18.79 10.69,-59.01 -14.91,-59.01 -18.04,0 -34.58,13.52 -34.58,31.44z"/>
    </g>
   </g>
  </g>
  <polygon class="fil1" points="2855.78,2855.78 -0,2855.78 -0,0 2855.78,0 "/>
 </g>
</svg>
