<?xml version="1.0" encoding="UTF-8"?>
<!DOCTYPE svg PUBLIC "-//W3C//DTD SVG 1.1//EN" "http://www.w3.org/Graphics/SVG/1.1/DTD/svg11.dtd">
<!-- Creator: CorelDRAW -->
<svg xmlns="http://www.w3.org/2000/svg" xml:space="preserve" width="173.153mm" height="173.153mm" version="1.1" style="shape-rendering:geometricPrecision; text-rendering:geometricPrecision; image-rendering:optimizeQuality; fill-rule:evenodd; clip-rule:evenodd"
viewBox="0 0 2090.92 2090.92"
 xmlns:xlink="http://www.w3.org/1999/xlink"
 xmlns:xodm="http://www.corel.com/coreldraw/odm/2003">
 <defs>
  <style type="text/css">
   <![CDATA[
    .fil1 {fill:none}
    .fil0 {fill:gray}
   ]]>
  </style>
   <clipPath id="id0">
    <path d="M2090.92 2090.92l-2090.92 0 0 -2090.92 2090.92 0 0 2090.92z"/>
   </clipPath>
 </defs>
 <g id="Capa_x0020_1">
  <metadata id="CorelCorpID_0Corel-Layer"/>
  <g>
  </g>
  <g style="clip-path:url(#id0)">
   <g id="_2367961414320">
    <g>
     <path class="fil0" d="M1386.28 1607.42l-686.84 0c-72.62,0 -116.55,-22.59 -165.44,-63.51 -6.91,-5.79 -6.87,-8.49 -13.4,-15.22 -23.49,-24.23 -41.65,-59.56 -50.17,-92.92 -3.08,-12.04 -7.43,-38 -7.74,-52.1 9.17,2.14 13.96,6.03 24.32,9.5 23.39,7.84 28.8,6.11 53.73,6.11 50.86,0 70.22,-41.63 117.07,-41.63 56.57,0 47.95,41.63 137.89,41.63 54.99,0 72.75,-41.63 119.68,-41.63 57.97,0 48.32,41.63 137.89,41.63 43.32,0 64.56,-24.89 86.14,-33.54 73.46,-29.45 90.61,33.54 150.61,33.54 39.54,0 48.27,1.57 84.07,-19.99 96.25,-57.98 101.94,19.99 178.69,19.99 60.64,0 45.5,-8.63 75.45,-15.61 -6.03,25.9 -0.93,47.01 -22.51,91.96 -38.43,80.05 -115.87,131.78 -219.44,131.78zm-1006.85 -392.85l0 -45.7c1.58,-30.02 9.92,-54.45 46.83,-73.98 -9.6,-20.02 -7.59,-30.6 -2.6,-52.03 -13.79,-3.21 -23.47,-11.09 -30.95,-21.08 -8.55,-11.42 -12.59,-23.41 -13.28,-34.95l0 -7.22c1.65,-27.55 21.85,-51.21 44.23,-56.43 -3.83,-5.72 -4.67,-5.21 -8.68,-12.13 -16.05,-27.72 -14.73,-40.69 -14.73,-71.12 0,-56.9 20.35,-121.68 39.89,-160.44 11.89,-23.59 21.11,-42.32 36.28,-62.59 74.9,-100.11 193.05,-175.03 321.89,-175.03l494.32 0c75.23,0 169.28,35.94 223.03,76.16 100.11,74.9 175.03,193.05 175.03,321.89 0,42.73 0.78,47.12 -23.42,83.25 56.86,13.25 58.13,106.13 0,119.68 2.75,33.04 5.91,15.51 -2.6,52.03 13.43,7.11 22.63,13.88 31.3,25.94 6.2,8.63 15.53,26.95 15.53,41.71 0,115.18 -9.77,72.44 -18.21,104.07 7.78,11.62 18.21,18.06 18.21,39.02 0,30.26 -20.38,52.65 -44.23,54.63 13.46,28.05 -8.37,98.27 -15.25,117.44 -6.04,16.83 -14.14,29.85 -22.93,44.71 -41.36,69.86 -132.81,126.64 -214.18,126.64l-738.87 0c-35.41,0 -77.67,-14.03 -101.48,-26 -46.34,-23.3 -74.81,-47.73 -104.46,-88.06 -10.08,-13.71 -15.26,-24.07 -23.02,-39.42 -16.58,-32.8 -33.41,-92.37 -23.4,-135.3 -22.36,-1.86 -44.23,-25.09 -44.23,-49.43 0,-27.81 7.11,-27.65 18.21,-44.23 -3.39,-12.7 -18.21,-21.17 -18.21,-52.03zm41.63 93.66c0,-9.14 3.76,-13.01 15.61,-13.01l1217.58 0c11.85,0 15.61,3.87 15.61,13.01 0,14.23 -15.41,5.68 -49.94,28.11 -90.05,58.48 -104.73,-20.3 -179.01,-20.3 -89.94,0 -81.31,41.63 -137.89,41.63 -57.75,0 -44.87,-41.63 -140.49,-41.63 -49.91,0 -70.17,41.63 -117.08,41.63 -57.76,0 -45.5,-41.63 -140.49,-41.63 -49.17,0 -71.85,41.63 -117.07,41.63 -56.58,0 -47.95,-41.63 -137.89,-41.63 -41.88,0 -61.39,22.26 -85.79,33.89 -19.39,9.24 -46.37,9.64 -66.77,1.59 -8,-3.15 -17.71,-9.64 -24.86,-14.16 -35.42,-22.41 -51.53,-16 -51.53,-29.12zm0 -104.07c0,-35.15 -4.26,-75.45 49.43,-75.45l249.76 0c12.27,0 30.69,5.09 41.65,7.78 118.9,29.11 246,55.64 366.29,83.8 12.23,2.86 28.46,6.75 40.19,9.25 21.16,4.5 28.14,14.79 62.92,-26.84 8.27,-9.9 15.32,-16.28 24.24,-25.2 7.75,-7.75 45.18,-48.78 52.69,-48.78l312.2 0c53.42,0 49.43,41.98 49.43,75.45 0,31.9 -17.54,49.43 -49.43,49.43l-1149.94 0c-31.9,0 -49.43,-17.54 -49.43,-49.43zm41.63 -137.89c0,-15.51 10.5,-20.81 26.02,-20.81l1113.52 0c15.52,0 26.02,5.31 26.02,20.81 0,24.61 -25.17,20.84 -49.43,20.81l-281.2 -0.22c-15.72,0.31 -14.38,2.65 -22.59,11.23 -17.16,17.94 -81.64,79.37 -89.06,90.45 -57.15,-13.31 -114.62,-25.53 -171.71,-39.03 -57.02,-13.48 -114.91,-25.08 -171.74,-39 -28.01,-6.86 -55.56,-12.43 -84.8,-19.27 -33.03,-7.72 -209.36,-4.28 -261.29,-4.08 -19.28,0.08 -33.72,-2.04 -33.72,-20.91zm-41.63 -83.25c0,-10.28 11.81,-20.81 23.42,-20.81l1201.97 0c30.27,0 30.27,41.63 0,41.63l-1201.97 0c-11.6,0 -23.42,-10.54 -23.42,-20.81zm408.46 -499.52l431.88 0c197.86,0 337.14,123.21 377.79,293.44 13.96,58.45 24.41,143.64 -62.99,143.64l-1061.48 0c-88.76,0 -74.83,-84.83 -63.55,-141.6 21.71,-109.24 98.45,-205.03 194.51,-252.98 60.03,-29.97 111.67,-42.49 183.85,-42.49z"/>
     <path class="fil0" d="M691.63 566.75c0,27.93 41.63,27.93 41.63,0 0,-27.93 -41.63,-27.93 -41.63,0z"/>
     <path class="fil0" d="M858.14 566.75c0,27.93 41.63,27.93 41.63,0 0,-27.93 -41.63,-27.93 -41.63,0z"/>
     <path class="fil0" d="M1024.65 566.75c0,27.93 41.63,27.93 41.63,0 0,-27.93 -41.63,-27.93 -41.63,0z"/>
     <path class="fil0" d="M1191.15 566.75c0,27.93 41.63,27.93 41.63,0 0,-27.93 -41.63,-27.93 -41.63,0z"/>
     <path class="fil0" d="M1357.66 566.75c0,27.93 41.63,27.93 41.63,0 0,-27.93 -41.63,-27.93 -41.63,0z"/>
     <path class="fil0" d="M608.38 712.45c0,27.93 41.63,27.93 41.63,0 0,-27.93 -41.63,-27.93 -41.63,0z"/>
     <path class="fil0" d="M774.89 712.45c0,27.93 41.63,27.93 41.63,0 0,-27.93 -41.63,-27.93 -41.63,0z"/>
     <path class="fil0" d="M941.39 712.45c0,27.93 41.63,27.93 41.63,0 0,-27.93 -41.63,-27.93 -41.63,0z"/>
     <path class="fil0" d="M1107.9 712.45c0,27.93 41.63,27.93 41.63,0 0,-27.93 -41.63,-27.93 -41.63,0z"/>
     <path class="fil0" d="M1274.41 712.45c0,27.93 41.63,27.93 41.63,0 0,-27.93 -41.63,-27.93 -41.63,0z"/>
     <path class="fil0" d="M1440.91 712.45c0,27.93 41.63,27.93 41.63,0 0,-27.93 -41.63,-27.93 -41.63,0z"/>
    </g>
   </g>
  </g>
  <polygon class="fil1" points="2090.92,2090.92 -0,2090.92 -0,0 2090.92,0 "/>
 </g>
</svg>
