<?xml version="1.0" encoding="UTF-8"?>
<!DOCTYPE svg PUBLIC "-//W3C//DTD SVG 1.1//EN" "http://www.w3.org/Graphics/SVG/1.1/DTD/svg11.dtd">
<!-- Creator: CorelDRAW -->
<svg xmlns="http://www.w3.org/2000/svg" xml:space="preserve" width="173.153mm" height="173.153mm" version="1.1" style="shape-rendering:geometricPrecision; text-rendering:geometricPrecision; image-rendering:optimizeQuality; fill-rule:evenodd; clip-rule:evenodd"
viewBox="0 0 1159.38 1159.38"
 xmlns:xlink="http://www.w3.org/1999/xlink"
 xmlns:xodm="http://www.corel.com/coreldraw/odm/2003">
 <defs>
  <style type="text/css">
   <![CDATA[
    .fil1 {fill:none}
    .fil0 {fill:gray}
   ]]>
  </style>
   <clipPath id="id0">
    <path d="M1159.38 1159.38l-1159.38 0 0 -1159.38 1159.38 0 0 1159.38z"/>
   </clipPath>
 </defs>
 <g id="Capa_x0020_1">
  <metadata id="CorelCorpID_0Corel-Layer"/>
  <g>
  </g>
  <g style="clip-path:url(#id0)">
   <g id="_2368010539120">
    <g>
     <path class="fil0" d="M280.47 503.44c0,-12.55 5.9,-24.1 12.33,-30.78 21.71,-22.59 59.14,-17.28 72.99,15.2l14.41 32.5c9.79,20.47 23.54,41.26 34.27,59.56 8.68,14.8 32.88,45.48 45.16,60.08 8.12,9.66 43.81,46.3 52.34,52.89l25.33 21.58c26.26,19.63 28.88,21.86 55.32,38.5 23.67,14.9 50.95,29.13 76.92,39.73 36.41,14.86 38.21,52.96 17.65,73.08 -7.49,7.33 -20.09,12.96 -30.15,12.96 -15.73,0 -65.32,-25.67 -82,-34.65 -47.23,-25.43 -89.99,-57.83 -130.05,-93.1 -15.18,-13.37 -37.36,-38.12 -51.38,-53.86 -21.49,-24.13 -53.76,-68.33 -68.76,-96.06l-16.54 -30.37c-5.75,-9.89 -27.84,-54.63 -27.84,-67.25zm159.75 -60.86l27.89 -10.14c8.94,-3.57 19.46,-6.1 27.89,-10.14 3.57,5.33 8.88,11.48 8.88,21.55 0,16.14 -13.37,31.7 -29.16,31.7 -22.93,0 -32.62,-10.49 -35.5,-32.96zm370.22 24.09c-17.67,0 -31.7,-14.1 -31.7,-31.7 0,-16.41 13.44,-31.7 29.16,-31.7 11.22,0 11.53,-0.23 21.55,5.07 -3.29,14.1 -18.11,47.44 -19.02,58.32zm27.89 -83.68c-8.4,-1.96 -14,-6.34 -27.89,-6.34 -65.87,0 -82.54,98.51 -10.14,115.38 -0.51,6.09 -9.08,29.88 -11.59,36.59l-12.5 35.68c-9.75,-5.16 -27.82,-24.09 -36.77,-24.09 -10.34,0 -20.18,14.21 -5.1,25.39l33 25.33c-2.91,6.07 -5.64,16.27 -8.09,23.61 -2.87,8.6 -5.62,15.57 -8.24,23.46l-24.09 71c-2.81,8.43 -5.46,14.98 -8.25,23.45 -2.82,8.53 -5.07,15.26 -7.91,23.78 -1.87,5.61 -7.72,20.52 -8.09,24.88 -3.82,-1.02 -7.48,-4.88 -11.82,-7.2l-41.88 -18.98c-22.54,-10.71 -54.21,-30.62 -74.35,-44.83 -19.19,-13.54 -27.53,-21.69 -44.57,-35.3 -15.67,-12.51 -47.32,-47.61 -59.01,-61.44 -3.1,-3.66 -5.5,-6.8 -8.36,-10.66l-55.01 -85.73 -12.68 -26.63c-4.77,-10.28 -7.18,-18.65 -13.1,-27.48l32.96 -11.41c2.94,12.63 8.04,26.56 18.09,35.16 43.84,37.5 97.28,0.56 97.28,-37.69 0,-30.37 -4.09,-20.39 -7.61,-35.5l155.95 -55.79c5.97,11.28 5.04,21.55 19.02,21.55 20.57,0 6.72,-28.79 6.34,-30.43l166.09 -59.59c-1.71,7.32 -5.14,16.06 -7.45,22.98 -2.72,8.15 -4.98,15.58 -8.14,23.56 -3.12,7.89 -5.26,15.39 -8.02,23.67 -2.45,7.35 -5.17,17.53 -8.09,23.61zm-476.73 59.59c-2.1,0 -19.63,-10.14 -36.77,-10.14 -37.43,0 -69.73,33.12 -69.73,64.66 0,33.86 11.88,45.27 23.19,71.9 16.23,38.25 57.07,97.93 82.45,129.29 21.69,26.81 40.93,46.79 66.5,70.43l32.97 29.15c18.74,15.31 37.34,28.59 57.85,42.32 25.67,17.18 40.51,22.99 62.83,36.07 14.27,8.36 55.48,27.83 72.34,27.83 22.79,0 37.43,-5.06 53.59,-21.22 5.09,-5.09 10.65,-12.9 13.47,-19.5 6.63,-15.56 8.54,-30.51 3.43,-47.54 -3.19,-10.65 -3.67,-6.65 0.03,-17.45l24.1 -69.74c4.09,-12.37 7.62,-24.23 12.07,-36.11 14.1,-37.6 35.94,-103.79 48.47,-141.71 3.97,-12.01 8.17,-23.24 12.04,-34.87l60.56 -176.54c4.08,-11.98 23.28,-65.33 23.28,-73.07 0,-17.7 -21.15,-9.59 -29.34,-6.52l-346.73 123.66c-11.82,4.13 -22.76,7.93 -33.64,12.01l-99.19 35.2c-5.16,1.69 -31.47,11.89 -33.75,11.89z"/>
     <path class="fil0" d="M612.65 476.81c0,-45.9 63.39,-45.9 63.39,0 0,15.73 -13.76,29.16 -34.23,29.16 -14.45,0 -29.16,-14.71 -29.16,-29.16zm-26.63 -2.54c0,31.41 26.88,58.32 58.32,58.32 60.36,0 81.99,-83.71 23.7,-111.19 -14.82,-6.98 -32.58,-6.92 -47.39,0.01 -19.61,9.17 -34.63,29.13 -34.63,52.85z"/>
     <path class="fil0" d="M608.85 632.76c0,-9.83 4.03,-17.36 9.15,-22.55 30.58,-31 74.52,14.19 46.37,43.84 -8.06,8.49 -21.3,12.87 -35.12,7.76 -4.77,-1.77 -10.47,-6.39 -13.73,-10.36 -2.76,-3.37 -6.67,-13.19 -6.67,-18.69zm-25.36 -5.07l0 8.88c0,26.45 27.05,53.25 53.25,53.25 18.98,0 32.73,-3.56 46.01,-17.39 36.87,-38.39 5.22,-97.99 -37.13,-97.99l-8.88 0c-26.49,0 -53.25,26.82 -53.25,53.25z"/>
     <path class="fil0" d="M314.7 500.9c0,6.11 28.52,65.32 36.53,76.32 8.25,11.34 23.06,5.74 23.06,-9.12 0,-4.84 -2.45,-7.25 -4.53,-10.68l-16.12 -30.79c-3.46,-8.1 -6.41,-14.09 -9.81,-21.89 -3.79,-8.69 -5.58,-16.52 -16.45,-16.52 -6.49,0 -12.68,6.67 -12.68,12.68z"/>
     <path class="fil0" d="M511.22 530.07c0,4.86 3.52,9.03 6.78,10.97 3.47,2.06 10.04,2.41 14.7,3.05 22,3.03 43.18,10.62 43.18,-10.22 0,-10.68 -9.89,-11.67 -19.89,-13.07 -15.32,-2.15 -44.77,-10.66 -44.77,9.27z"/>
     <path class="fil0" d="M516.29 588.39c0,9.33 1.46,16.89 2.58,25.32 3.57,26.93 26.59,15.56 26.59,6.38 0,-9.93 -1.66,-16.08 -2.61,-25.29 -2.82,-27.35 -26.56,-14.03 -26.56,-6.41z"/>
     <path class="fil0" d="M367.95 601.07c0,17.71 26.63,18.95 26.63,0 0,-6.36 -6.92,-12.03 -12.83,-12.3 -6.51,-0.3 -13.8,5.87 -13.8,12.3z"/>
    </g>
   </g>
  </g>
  <polygon class="fil1" points="1159.38,1159.38 -0,1159.38 -0,0 1159.38,0 "/>
 </g>
</svg>
