<?xml version="1.0" encoding="UTF-8"?>
<!DOCTYPE svg PUBLIC "-//W3C//DTD SVG 1.1//EN" "http://www.w3.org/Graphics/SVG/1.1/DTD/svg11.dtd">
<!-- Creator: CorelDRAW -->
<svg xmlns="http://www.w3.org/2000/svg" xml:space="preserve" width="173.153mm" height="173.153mm" version="1.1" style="shape-rendering:geometricPrecision; text-rendering:geometricPrecision; image-rendering:optimizeQuality; fill-rule:evenodd; clip-rule:evenodd"
viewBox="0 0 1649.21 1649.21"
 xmlns:xlink="http://www.w3.org/1999/xlink"
 xmlns:xodm="http://www.corel.com/coreldraw/odm/2003">
 <defs>
  <style type="text/css">
   <![CDATA[
    .fil1 {fill:none}
    .fil0 {fill:gray}
   ]]>
  </style>
   <clipPath id="id0">
    <path d="M1649.21 1649.21l-1649.21 0 0 -1649.21 1649.21 0 0 1649.21z"/>
   </clipPath>
 </defs>
 <g id="Capa_x0020_1">
  <metadata id="CorelCorpID_0Corel-Layer"/>
  <g>
  </g>
  <g style="clip-path:url(#id0)">
   <g id="_2367232352912">
    <g>
     <path class="fil0" d="M406.78 899.89c86.25,0 157.3,-58.2 173.36,-139.06 5.94,-29.9 -1.04,-27.1 13.37,-31.8 30.14,-9.83 59.84,-30.58 81.03,-52.59 4.44,-4.62 5.92,-7.41 10.31,-12.28 4.33,-4.81 5.92,-7.93 9.62,-12.96 33.15,-45.07 37.91,-85.72 37.91,-140.89 33.85,-2.82 79.29,-38.81 100.51,-70.76 14.24,-21.45 10.88,-21.27 19.94,-38.4 62.26,0 147.75,30.7 200.28,65.1l44.41 32.76c14.17,10.94 35.74,33.33 47.49,46.61 84.32,95.37 122.1,231.91 95.69,363.86 -9.45,47.18 -28.97,99.13 -53.62,136.47 -14.95,22.66 -47.33,68.01 -67.55,84.9 -59.05,49.32 -82.85,70.8 -168.1,99.15 -125.46,41.72 -287.13,12.92 -386.13,-68.91l-40.43 -34.86c-46.02,-46.48 -81.43,-102.26 -102.33,-164.93 -5.59,-16.76 -14.2,-42.57 -15.77,-61.4zm263.49 -414.06c0,25.33 20.94,66.93 -21.53,130.92l-17.51 22.02c-4,4.57 -5.88,5.21 -10.16,8.66 -4.43,3.57 -4.95,4.92 -10.23,8.59 -8.87,6.16 -15.76,9.59 -25.23,14.29 -9.43,4.68 -17.96,7.13 -30,9.52 -62.3,12.36 2.92,61.79 -65.52,130.22 -48.64,48.64 -104.2,27.73 -117.19,27.73 -14.26,0 -28.23,11.92 -28.23,26.35 0,55.97 25.44,129.9 48.93,176.92 25.9,51.84 67.48,107.44 110.49,143.59 6.2,5.21 7.93,7.89 15.07,13.16 11.36,8.37 20.36,16.44 32.14,24.32 23.96,16.03 45.36,27.96 71.89,41.04 48.79,24.07 129.15,43.26 184.47,43.26l33.88 0c120.15,0 243,-59.5 324.19,-140.69 19.47,-19.47 36.07,-39.99 52.52,-62.29 48.68,-65.98 88.16,-170.69 88.16,-261.9l0 -33.88c0,-120.06 -59.51,-243.01 -140.69,-324.19 -86.41,-86.41 -206.25,-140.69 -335.48,-140.69 -36.42,0 -22.76,54.19 -63.69,86.88 -51.68,41.29 -96.29,17.94 -96.29,56.16z"/>
     <path class="fil0" d="M864.13 583.7c0,-24.13 18.98,-43.91 44.03,-46.36 25.26,-2.47 48.2,16.82 48.2,50.12 0,34.79 -47.76,59.29 -77.99,29.06 -7.08,-7.08 -14.23,-19.64 -14.23,-32.82zm-56.46 -9.41c0,28.76 0.94,46.01 19.6,70.74 61.31,81.26 187.43,37.16 187.43,-61.33 0,-54.93 -45.88,-103.51 -99.75,-103.51 -44.43,0 -77.33,19.78 -96.63,55.82 -4.47,8.35 -10.65,26.4 -10.65,38.28z"/>
     <path class="fil0" d="M472.66 442.54c0,-55.44 80.93,-59.65 80.93,1.88 0,22.57 -24.16,37.64 -37.64,37.64 -23.3,0 -43.29,-17.03 -43.29,-39.52zm34.15 -99.75l13.62 0c23.5,1.59 46.45,11.43 63.79,29.6 36.51,38.26 36.73,96.76 0.92,135.59 -39.37,42.69 -109.86,38.73 -143.08,0.93 -16.26,-18.51 -27.75,-42.61 -27.75,-68.24 0,-13.58 5.23,-30.46 9.09,-39.85 2.32,-5.64 5.2,-10.82 8.67,-15.8 18.23,-26.19 46.17,-40.29 74.74,-42.22z"/>
     <path class="fil0" d="M634.52 952.59c0,-59.52 80.93,-53.31 80.93,-5.65 0,24.58 -14.34,43.29 -35.76,43.29 -14.49,0 -21.48,0.78 -34.44,-12.62 -5.88,-6.07 -10.73,-13.92 -10.73,-25.03zm41.41 95.99c27.23,0 44.29,-9.16 62.94,-23.64 3.62,-2.81 3.96,-2.46 7.19,-5.98 6.28,-6.84 16.03,-20.88 19.47,-29.47 41.85,-104.64 -86.2,-182.51 -159.76,-108.95 -61.13,61.13 -18.74,168.03 70.16,168.03z"/>
     <path class="fil0" d="M1089.98 747.44c56.11,0 48.57,75.28 3.76,75.28 -21.89,0 -37.62,-16.62 -39.03,-36.11 -1.41,-19.61 15.32,-39.17 35.26,-39.17zm-92.22 30.11c0,31.89 5.75,51.99 26.8,72.95 78.84,78.53 198.5,-14.84 154.55,-105.62 -10.05,-20.75 -25.86,-37.77 -47.16,-46.94 -72.12,-31.06 -134.19,28.39 -134.19,79.61z"/>
     <path class="fil0" d="M922.47 1025.99c0,-51.39 75.28,-51.39 75.28,0 0,47.34 -75.28,47.34 -75.28,0zm35.76 94.1c31.83,0 51.64,-11.16 69.17,-28.69 57.82,-57.82 22.03,-161.4 -71.06,-161.4 -26.65,0 -51.7,14.87 -65,29.1 -26.49,28.34 -34.95,70.12 -17.84,104.56 15.48,31.17 43.74,56.43 84.73,56.43z"/>
     <path class="fil0" d="M824.61 871.66l0 9.41c0,28.21 56.46,37.2 56.46,-7.53 0,-33 -56.46,-34.28 -56.46,-1.88z"/>
     <path class="fil0" d="M1063.63 600.64c0,36.15 55.32,39.01 57.89,1.52 2.62,-38.34 -57.89,-39.41 -57.89,-1.52z"/>
     <path class="fil0" d="M882.95 764.38c0,17.43 3.96,33.88 30.11,33.88 30.03,0 39.46,-52.08 0.67,-56.99 -6.72,-0.85 -13.75,0.04 -20.05,5.62 -4.89,4.34 -10.74,9.39 -10.74,17.5z"/>
     <path class="fil0" d="M483.95 986.47c39.57,0 41.07,-56.46 -1.88,-56.46 -31.87,0 -36.33,56.46 1.88,56.46z"/>
     <path class="fil0" d="M758.73 1142.68c0,17.19 7.21,31.99 28.23,31.99 37.2,0 38.15,-56.67 -0.28,-57.24 -12.12,-0.18 -27.95,11.27 -27.95,25.25z"/>
     <path class="fil0" d="M1123.86 954.47c0,45.62 56.46,39.25 56.46,3.76 0,-38.65 -56.46,-35.21 -56.46,-3.76z"/>
     <path class="fil0" d="M342.79 643.93c0,45.26 56.46,39.65 56.46,3.76 0,-38.71 -56.46,-34.5 -56.46,-3.76z"/>
     <path class="fil0" d="M702.27 743.68c0,17.19 7.21,31.99 28.23,31.99 34.56,0 42.47,-56.46 -3.76,-56.46 -11.54,0 -24.47,12.93 -24.47,24.47z"/>
    </g>
   </g>
  </g>
  <polygon class="fil1" points="1649.21,1649.21 -0,1649.21 -0,0 1649.21,0 "/>
 </g>
</svg>
